{
  "accessors": [
    {
      "bufferView": 2,
      "componentType": 5126,
      "count": 171,
      "max": [
        55.079498291015625,
        -34.684898376464844,
        45.297901153564453
      ],
      "min": [
        20.865400314331055,
        -48.349800109863281,
        30.269399642944336
      ],
      "type": "VEC3"
    },
    {
      "bufferView": 2,
      "byteOffset": 2052,
      "componentType": 5126,
      "count": 171,
      "max": [
        0.8017117977142334,
        -0.21439602971076965,
        0.71034723520278931
      ],
      "min": [
        -0.55183714628219604,
        -0.99947488307952881,
        -0.96753513813018799
      ],
      "type": "VEC3"
    },
    {
      "bufferView": 1,
      "componentType": 5126,
      "count": 171,
      "max": [
        0.97893500328063965,
        0.48507899045944214
      ],
      "min": [
        0.040686998516321182,
        0.023406000807881355
      ],
      "type": "VEC2"
    },
    {
      "bufferView": 0,
      "componentType": 5125,
      "count": 924,
      "max": [
        170
      ],
      "min": [
        0
      ],
      "type": "SCALAR"
    },
    {
      "bufferView": 2,
      "byteOffset": 4104,
      "componentType": 5126,
      "count": 171,
      "max": [
        -21.762899398803711,
        -34.161300659179688,
        44.354698181152344
      ],
      "min": [
        -54.039199829101562,
        -46.92919921875,
        30.197000503540039
      ],
      "type": "VEC3"
    },
    {
      "bufferView": 2,
      "byteOffset": 6156,
      "componentType": 5126,
      "count": 171,
      "max": [
        0.57326400279998779,
        -0.22464694082736969,
        0.70849806070327759
      ],
      "min": [
        -0.78278172016143799,
        -0.99956762790679932,
        -0.96499276161193848
      ],
      "type": "VEC3"
    },
    {
      "bufferView": 1,
      "byteOffset": 1368,
      "componentType": 5126,
      "count": 171,
      "max": [
        0.98035198450088501,
        0.98763102293014526
      ],
      "min": [
        0.042103998363018036,
        0.52595698833465576
      ],
      "type": "VEC2"
    },
    {
      "bufferView": 0,
      "byteOffset": 3696,
      "componentType": 5125,
      "count": 924,
      "max": [
        170
      ],
      "min": [
        0
      ],
      "type": "SCALAR"
    },
    {
      "bufferView": 2,
      "byteOffset": 8208,
      "componentType": 5126,
      "count": 5960,
      "max": [
        97.194900512695312,
        149.06199645996094,
        124.28399658203125
      ],
      "min": [
        -97.881103515625,
        -95.362098693847656,
        -156.29100036621094
      ],
      "type": "VEC3"
    },
    {
      "bufferView": 2,
      "byteOffset": 79728,
      "componentType": 5126,
      "count": 5960,
      "max": [
        0.99982547760009766,
        0.99997222423553467,
        0.99948745965957642
      ],
      "min": [
        -0.99994885921478271,
        -0.99914664030075073,
        -0.99471545219421387
      ],
      "type": "VEC3"
    },
    {
      "bufferView": 1,
      "byteOffset": 2736,
      "componentType": 5126,
      "count": 5960,
      "max": [
        1,
        1
      ],
      "min": [
        0,
        -0.0027829399332404137
      ],
      "type": "VEC2"
    },
    {
      "bufferView": 0,
      "byteOffset": 7392,
      "componentType": 5125,
      "count": 34476,
      "max": [
        5959
      ],
      "min": [
        0
      ],
      "type": "SCALAR"
    },
    {
      "bufferView": 2,
      "byteOffset": 151248,
      "componentType": 5126,
      "count": 45,
      "max": [
        34.255001068115234,
        20.232000350952148,
        -0.40681999921798706
      ],
      "min": [
        -34.788200378417969,
        -83.089599609375,
        -81.147697448730469
      ],
      "type": "VEC3"
    },
    {
      "bufferView": 2,
      "byteOffset": 151788,
      "componentType": 5126,
      "count": 45,
      "max": [
        0.99904286861419678,
        0.96933925151824951,
        0.74065876007080078
      ],
      "min": [
        -0.99937337636947632,
        -0.863788902759552,
        -0.98130714893341064
      ],
      "type": "VEC3"
    },
    {
      "bufferView": 1,
      "byteOffset": 50416,
      "componentType": 5126,
      "count": 45,
      "max": [
        1.0002299547195435,
        0.97396498918533325
      ],
      "min": [
        0.011714000254869461,
        0.015065999701619148
      ],
      "type": "VEC2"
    },
    {
      "bufferView": 0,
      "byteOffset": 145296,
      "componentType": 5125,
      "count": 198,
      "max": [
        44
      ],
      "min": [
        0
      ],
      "type": "SCALAR"
    },
    {
      "bufferView": 2,
      "byteOffset": 152328,
      "componentType": 5126,
      "count": 22,
      "max": [
        23.594499588012695,
        -29.776100158691406,
        -30.781499862670898
      ],
      "min": [
        -24.158300399780273,
        -80.665603637695312,
        -53.215198516845703
      ],
      "type": "VEC3"
    },
    {
      "bufferView": 2,
      "byteOffset": 152592,
      "componentType": 5126,
      "count": 22,
      "max": [
        0.99723225831985474,
        -0.070537514984607697,
        0.18494103848934174
      ],
      "min": [
        -0.99550074338912964,
        -0.98254925012588501,
        -0.023503806442022324
      ],
      "type": "VEC3"
    },
    {
      "bufferView": 1,
      "byteOffset": 50776,
      "componentType": 5126,
      "count": 22,
      "max": [
        0.99944400787353516,
        0.96023499965667725
      ],
      "min": [
        0.0011940000113099813,
        0.055038001388311386
      ],
      "type": "VEC2"
    },
    {
      "bufferView": 0,
      "byteOffset": 146088,
      "componentType": 5125,
      "count": 60,
      "max": [
        21
      ],
      "min": [
        0
      ],
      "type": "SCALAR"
    },
    {
      "bufferView": 2,
      "byteOffset": 152856,
      "componentType": 5126,
      "count": 22,
      "max": [
        29.053800582885742,
        -19.910100936889648,
        -12.861499786376953
      ],
      "min": [
        -29.589199066162109,
        -79.683296203613281,
        -45.022598266601562
      ],
      "type": "VEC3"
    },
    {
      "bufferView": 2,
      "byteOffset": 153120,
      "componentType": 5126,
      "count": 22,
      "max": [
        0.9922407865524292,
        -0.12423297017812729,
        0.35491299629211426
      ],
      "min": [
        -0.99021542072296143,
        -0.93462002277374268,
        -0.004940718412399292
      ],
      "type": "VEC3"
    },
    {
      "bufferView": 1,
      "byteOffset": 50952,
      "componentType": 5126,
      "count": 22,
      "max": [
        1.0052599906921387,
        0.87963497638702393
      ],
      "min": [
        0.001091000041924417,
        0.041581001132726669
      ],
      "type": "VEC2"
    },
    {
      "bufferView": 0,
      "byteOffset": 146328,
      "componentType": 5125,
      "count": 60,
      "max": [
        21
      ],
      "min": [
        0
      ],
      "type": "SCALAR"
    },
    {
      "bufferView": 2,
      "byteOffset": 153384,
      "componentType": 5126,
      "count": 44,
      "max": [
        21.640100479125977,
        -5.2286100387573242,
        -34.9552001953125
      ],
      "min": [
        -22.097400665283203,
        -70.84210205078125,
        -57.519298553466797
      ],
      "type": "VEC3"
    },
    {
      "bufferView": 2,
      "byteOffset": 153912,
      "componentType": 5126,
      "count": 44,
      "max": [
        0.9810442328453064,
        0.97843974828720093,
        0.996745765209198
      ],
      "min": [
        -0.9770093560218811,
        -0.93334400653839111,
        -0.97930949926376343
      ],
      "type": "VEC3"
    },
    {
      "bufferView": 1,
      "byteOffset": 51128,
      "componentType": 5126,
      "count": 44,
      "max": [
        1,
        1.0011700391769409
      ],
      "min": [
        0,
        0
      ],
      "type": "VEC2"
    },
    {
      "bufferView": 0,
      "byteOffset": 146568,
      "componentType": 5125,
      "count": 198,
      "max": [
        43
      ],
      "min": [
        0
      ],
      "type": "SCALAR"
    }
  ],
  "asset": {
    "extras": {
      "author": "Leon Primer (https://sketchfab.com/heybabywasgeht)",
      "license": "CC-BY-4.0 (http://creativecommons.org/licenses/by/4.0/)",
      "source": "https://sketchfab.com/3d-models/scarlett-johansson-3d-headface-dc3812a840b344658873a0c028f48d76",
      "title": "Scarlett Johansson 3D Head/Face"
    },
    "generator": "Sketchfab-8.14.0",
    "version": "2.0"
  },
  "bufferViews": [
    {
      "buffer": 0,
      "byteLength": 147360,
      "byteOffset": 0,
      "name": "floatBufferViews",
      "target": 34963
    },
    {
      "buffer": 0,
      "byteLength": 51480,
      "byteOffset": 147360,
      "byteStride": 8,
      "name": "floatBufferViews",
      "target": 34962
    },
    {
      "buffer": 0,
      "byteLength": 154440,
      "byteOffset": 198840,
      "byteStride": 12,
      "name": "floatBufferViews",
      "target": 34962
    }
  ],
  "buffers": [
    {
      "byteLength": 353280,
      "uri": "scene.bin"
    }
  ],
  "images": [
    {
      "uri": "textures/Texture0_baseColor.jpeg"
    },
    {
      "uri": "textures/Texture1_baseColor.jpeg"
    },
    {
      "uri": "textures/Texture2_baseColor.jpeg"
    },
    {
      "uri": "textures/Texture3_baseColor.jpeg"
    },
    {
      "uri": "textures/Texture4_baseColor.jpeg"
    },
    {
      "uri": "textures/Texture5_baseColor.jpeg"
    },
    {
      "uri": "textures/Texture6_baseColor.jpeg"
    }
  ],
  "materials": [
    {
      "doubleSided": true,
      "emissiveFactor": [
        0,
        0,
        0
      ],
      "name": "Texture0",
      "pbrMetallicRoughness": {
        "baseColorFactor": [
          1,
          1,
          1,
          1
        ],
        "baseColorTexture": {
          "index": 0,
          "texCoord": 0
        },
        "metallicFactor": 0,
        "roughnessFactor": 1
      }
    },
    {
      "doubleSided": true,
      "emissiveFactor": [
        0,
        0,
        0
      ],
      "name": "Texture1",
      "pbrMetallicRoughness": {
        "baseColorFactor": [
          1,
          1,
          1,
          1
        ],
        "baseColorTexture": {
          "index": 1,
          "texCoord": 0
        },
        "metallicFactor": 0,
        "roughnessFactor": 1
      }
    },
    {
      "doubleSided": true,
      "emissiveFactor": [
        0,
        0,
        0
      ],
      "name": "Texture2",
      "pbrMetallicRoughness": {
        "baseColorFactor": [
          1,
          1,
          1,
          1
        ],
        "baseColorTexture": {
          "index": 2,
          "texCoord": 0
        },
        "metallicFactor": 0,
        "roughnessFactor": 1
      }
    },
    {
      "doubleSided": true,
      "emissiveFactor": [
        0,
        0,
        0
      ],
      "name": "Texture3",
      "pbrMetallicRoughness": {
        "baseColorFactor": [
          1,
          1,
          1,
          1
        ],
        "baseColorTexture": {
          "index": 3,
          "texCoord": 0
        },
        "metallicFactor": 0,
        "roughnessFactor": 1
      }
    },
    {
      "doubleSided": true,
      "emissiveFactor": [
        0,
        0,
        0
      ],
      "name": "Texture4",
      "pbrMetallicRoughness": {
        "baseColorFactor": [
          1,
          1,
          1,
          1
        ],
        "baseColorTexture": {
          "index": 4,
          "texCoord": 0
        },
        "metallicFactor": 0,
        "roughnessFactor": 1
      }
    },
    {
      "doubleSided": true,
      "emissiveFactor": [
        0,
        0,
        0
      ],
      "name": "Texture5",
      "pbrMetallicRoughness": {
        "baseColorFactor": [
          1,
          1,
          1,
          1
        ],
        "baseColorTexture": {
          "index": 5,
          "texCoord": 0
        },
        "metallicFactor": 0,
        "roughnessFactor": 1
      }
    },
    {
      "doubleSided": true,
      "emissiveFactor": [
        0,
        0,
        0
      ],
      "name": "Texture6",
      "pbrMetallicRoughness": {
        "baseColorFactor": [
          1,
          1,
          1,
          1
        ],
        "baseColorTexture": {
          "index": 6,
          "texCoord": 0
        },
        "metallicFactor": 0,
        "roughnessFactor": 0.06878810975609756
      }
    }
  ],
  "meshes": [
    {
      "primitives": [
        {
          "attributes": {
            "NORMAL": 1,
            "POSITION": 0,
            "TEXCOORD_0": 2
          },
          "indices": 3,
          "material": 0,
          "mode": 4
        }
      ]
    },
    {
      "primitives": [
        {
          "attributes": {
            "NORMAL": 5,
            "POSITION": 4,
            "TEXCOORD_0": 6
          },
          "indices": 7,
          "material": 1,
          "mode": 4
        }
      ]
    },
    {
      "primitives": [
        {
          "attributes": {
            "NORMAL": 9,
            "POSITION": 8,
            "TEXCOORD_0": 10
          },
          "indices": 11,
          "material": 2,
          "mode": 4
        }
      ]
    },
    {
      "primitives": [
        {
          "attributes": {
            "NORMAL": 13,
            "POSITION": 12,
            "TEXCOORD_0": 14
          },
          "indices": 15,
          "material": 3,
          "mode": 4
        }
      ]
    },
    {
      "primitives": [
        {
          "attributes": {
            "NORMAL": 17,
            "POSITION": 16,
            "TEXCOORD_0": 18
          },
          "indices": 19,
          "material": 4,
          "mode": 4
        }
      ]
    },
    {
      "primitives": [
        {
          "attributes": {
            "NORMAL": 21,
            "POSITION": 20,
            "TEXCOORD_0": 22
          },
          "indices": 23,
          "material": 5,
          "mode": 4
        }
      ]
    },
    {
      "primitives": [
        {
          "attributes": {
            "NORMAL": 25,
            "POSITION": 24,
            "TEXCOORD_0": 26
          },
          "indices": 27,
          "material": 6,
          "mode": 4
        }
      ]
    }
  ],
  "nodes": [
    {
      "children": [
        1
      ],
      "name": "RootNode (gltf orientation matrix)",
      "rotation": [
        -0.70710678118654746,
        -0,
        -0,
        0.70710678118654757
      ]
    },
    {
      "children": [
        2
      ],
      "name": "RootNode (model correction matrix)"
    },
    {
      "children": [
        3,
        4,
        5,
        6,
        7,
        8,
        9
      ],
      "name": "Scarlett Johansson Head 3D.obj.cleaner.materialmerger.gles"
    },
    {
      "mesh": 0,
      "name": ""
    },
    {
      "mesh": 1,
      "name": ""
    },
    {
      "mesh": 2,
      "name": ""
    },
    {
      "mesh": 3,
      "name": ""
    },
    {
      "mesh": 4,
      "name": ""
    },
    {
      "mesh": 5,
      "name": ""
    },
    {
      "mesh": 6,
      "name": ""
    }
  ],
  "samplers": [
    {
      "magFilter": 9729,
      "minFilter": 9987,
      "wrapS": 10497,
      "wrapT": 10497
    }
  ],
  "scene": 0,
  "scenes": [
    {
      "name": "OSG_Scene",
      "nodes": [
        0
      ]
    }
  ],
  "textures": [
    {
      "sampler": 0,
      "source": 0
    },
    {
      "sampler": 0,
      "source": 1
    },
    {
      "sampler": 0,
      "source": 2
    },
    {
      "sampler": 0,
      "source": 3
    },
    {
      "sampler": 0,
      "source": 4
    },
    {
      "sampler": 0,
      "source": 5
    },
    {
      "sampler": 0,
      "source": 6
    }
  ]
}

